<?xml version="1.0" standalone="no"?>
<!DOCTYPE svg PUBLIC "-//W3C//DTD SVG 20010904//EN"
 "http://www.w3.org/TR/2001/REC-SVG-20010904/DTD/svg10.dtd">
<svg version="1.0" xmlns="http://www.w3.org/2000/svg"
 width="500.000000pt" height="157.000000pt" viewBox="0 0 500.000000 157.000000"
 preserveAspectRatio="xMidYMid meet">

<g transform="translate(0.000000,157.000000) scale(0.100000,-0.100000)"
fill="#006772" stroke="none">
<path d="M908 1401 l-33 -29 -3 -203 -3 -203 33 41 c18 23 59 71 90 106 91
101 116 176 84 251 -30 71 -110 89 -168 37z"/>
<path d="M1001 1059 c-95 -107 -120 -150 -128 -219 -5 -43 -11 -52 -42 -73
-45 -29 -95 -47 -133 -47 -43 0 -98 -57 -98 -101 0 -45 33 -97 66 -105 47 -12
142 3 206 33 61 29 134 84 245 184 113 102 218 125 324 72 62 -32 113 -93 130
-156 6 -23 11 -79 11 -123 0 -140 -48 -262 -135 -347 l-51 -49 35 7 c67 13
160 64 218 120 103 98 146 210 139 354 -8 141 -62 245 -175 337 -85 69 -148
89 -283 89 -101 0 -122 -3 -177 -26 l-62 -26 -3 85 -3 86 -84 -95z"/>
<path d="M1937 733 c-4 -3 -7 -60 -7 -126 l0 -119 94 4 c75 2 98 7 115 22 26
24 27 60 2 85 -16 16 -17 21 -6 32 31 32 22 77 -20 95 -34 14 -166 20 -178 7z
m127 -49 c9 -3 16 -15 16 -25 0 -15 -7 -19 -35 -19 -31 0 -35 3 -35 25 0 26
19 32 54 19z m11 -98 c16 -12 17 -16 6 -30 -7 -9 -26 -16 -42 -16 -26 0 -29 4
-29 30 0 25 4 30 23 30 13 0 32 -6 42 -14z"/>
<path d="M2250 615 l0 -125 35 0 35 0 0 125 0 125 -35 0 -35 0 0 -125z"/>
<path d="M2445 715 c-52 -51 -22 -106 69 -125 44 -9 56 -15 56 -30 0 -29 -38
-35 -71 -11 -57 43 -105 12 -56 -36 52 -52 186 -27 195 37 9 58 -11 76 -103
96 -25 6 -40 15 -40 24 0 20 46 26 60 7 17 -23 67 -10 63 17 -4 28 -43 46
-101 46 -38 0 -53 -5 -72 -25z"/>
<path d="M2730 616 l0 -126 34 0 c34 0 35 1 38 43 4 57 33 58 62 2 17 -33 27
-41 55 -43 43 -4 64 14 37 33 -10 8 -24 25 -32 40 -12 23 -11 28 12 50 30 30
31 56 0 91 -21 26 -30 28 -115 32 l-91 4 0 -126z m144 59 c8 -9 13 -22 10 -30
-6 -16 -58 -30 -74 -20 -11 7 -14 48 -3 58 12 12 51 7 67 -8z"/>
<path d="M3060 615 l0 -125 90 0 90 0 0 30 c0 30 -1 30 -55 30 -48 0 -55 2
-55 20 0 17 7 20 45 20 41 0 45 2 45 25 0 23 -4 25 -45 25 -38 0 -45 3 -45 20
0 17 7 20 50 20 49 0 50 1 50 30 l0 30 -85 0 -85 0 0 -125z"/>
<path d="M3359 727 c-42 -32 -46 -97 -9 -117 10 -6 41 -15 69 -21 58 -12 72
-26 46 -46 -26 -18 -42 -16 -65 7 -35 35 -92 20 -71 -18 16 -30 46 -44 101
-46 78 -2 128 42 114 100 -7 29 -31 43 -99 58 -32 8 -50 17 -50 26 0 20 48 25
63 7 13 -15 58 -12 68 4 3 5 -6 20 -20 34 -21 20 -35 25 -78 25 -29 0 -60 -6
-69 -13z"/>
<path d="M3630 653 c0 -103 12 -131 63 -156 47 -23 110 -15 144 19 21 21 23
32 23 124 l0 100 -35 0 -35 0 0 -90 c0 -78 -2 -91 -19 -100 -47 -25 -71 16
-71 121 l0 69 -35 0 -35 0 0 -87z"/>
<path d="M3967 733 c-4 -3 -7 -60 -7 -125 l0 -118 35 0 34 0 3 78 3 77 30 -78
c29 -74 31 -78 59 -75 26 3 32 10 53 68 35 94 43 96 43 7 l0 -77 30 0 30 0 0
126 0 125 -46 -3 -47 -3 -30 -78 c-17 -43 -33 -74 -37 -70 -4 4 -20 41 -35 81
l-28 72 -42 0 c-23 0 -45 -3 -48 -7z"/>
<path d="M4380 615 l0 -125 90 0 90 0 0 30 c0 30 -1 30 -55 30 -48 0 -55 2
-55 20 0 17 7 20 45 20 41 0 45 2 45 25 0 23 -4 25 -45 25 -38 0 -45 3 -45 20
0 18 7 20 56 20 54 0 55 0 52 28 -3 27 -3 27 -90 30 l-88 3 0 -126z"/>
<path d="M1025 589 c-33 -27 -78 -55 -100 -62 -36 -13 -40 -17 -39 -45 5 -96
125 -252 234 -305 89 -42 141 -53 188 -38 94 31 183 134 216 249 l15 54 -38
-35 c-116 -105 -295 -83 -375 47 -23 36 -31 64 -35 116 l-6 69 -60 -50z"/>
</g>
</svg>
