<svg xmlns="http://www.w3.org/2000/svg" xmlns:xlink="http://www.w3.org/1999/xlink" width="350" layout='fill' zoomAndPan="magnify" viewBox="0 0 262.5 74.999997" height="100" preserveAspectRatio="xMidYMid meet" version="1.0"><defs><g/><clipPath id="4700b03170"><path d="M 40.25 3.207031 L 99.5 3.207031 L 99.5 67.707031 L 40.25 67.707031 Z M 40.25 3.207031 " clip-rule="nonzero"/></clipPath></defs><g clip-path="url(#4700b03170)"><path fill="#2a6672" d="M 59.21875 3.207031 C 58.863281 3.207031 58.515625 3.242188 58.167969 3.3125 C 57.824219 3.378906 57.488281 3.480469 57.164062 3.617188 C 56.835938 3.75 56.527344 3.914062 56.234375 4.109375 C 55.941406 4.304688 55.671875 4.527344 55.421875 4.777344 C 55.171875 5.023438 54.949219 5.292969 54.753906 5.585938 C 54.558594 5.878906 54.394531 6.1875 54.257812 6.511719 C 54.125 6.835938 54.019531 7.171875 53.953125 7.515625 C 53.882812 7.859375 53.847656 8.207031 53.847656 8.558594 L 53.847656 26.519531 C 55.253906 24.121094 57.21875 22.035156 59.058594 20.082031 C 61.675781 17.292969 64.175781 14.640625 64.585938 11.667969 L 64.585938 8.558594 C 64.585938 8.207031 64.550781 7.859375 64.480469 7.515625 C 64.414062 7.171875 64.3125 6.835938 64.175781 6.511719 C 64.042969 6.1875 63.875 5.878906 63.679688 5.585938 C 63.484375 5.292969 63.261719 5.023438 63.011719 4.777344 C 62.761719 4.527344 62.492188 4.304688 62.199219 4.109375 C 61.90625 3.914062 61.597656 3.75 61.269531 3.617188 C 60.945312 3.480469 60.609375 3.378906 60.265625 3.3125 C 59.917969 3.242188 59.570312 3.207031 59.21875 3.207031 Z M 76.675781 57.101562 C 75.882812 57.101562 75.09375 57.023438 74.316406 56.871094 C 73.539062 56.714844 72.78125 56.484375 72.050781 56.183594 C 71.316406 55.878906 70.621094 55.507812 69.960938 55.070312 C 69.300781 54.628906 68.691406 54.128906 68.128906 53.570312 C 67.566406 53.011719 67.066406 52.402344 66.625 51.746094 C 66.183594 51.085938 65.8125 50.394531 65.507812 49.664062 C 65.203125 48.929688 64.972656 48.179688 64.816406 47.402344 C 64.660156 46.625 64.582031 45.84375 64.582031 45.050781 L 64.582031 42.105469 C 62.839844 43.191406 59.597656 47.675781 54.0625 48.566406 C 55.359375 58.007812 63.351562 66.292969 73.746094 67.625 C 79.410156 66.316406 82.617188 62.507812 84.355469 59.371094 C 85.726562 56.84375 86.609375 54.15625 87.003906 51.308594 C 86.464844 52.191406 85.820312 52.996094 85.074219 53.714844 C 84.328125 54.433594 83.503906 55.046875 82.601562 55.554688 C 81.695312 56.0625 80.742188 56.445312 79.738281 56.707031 C 78.734375 56.972656 77.714844 57.101562 76.675781 57.101562 Z M 76.675781 22.296875 C 71.746094 22.296875 67.839844 23.707031 64.585938 25.65625 L 64.585938 16.496094 C 63.464844 18.164062 61.96875 19.746094 60.441406 21.367188 C 57.40625 24.59375 54.277344 27.914062 53.847656 32.222656 L 53.847656 34.527344 C 51.109375 36.828125 48.730469 38.183594 45.453125 38.28125 C 45.101562 38.296875 44.757812 38.34375 44.417969 38.425781 C 44.078125 38.507812 43.75 38.621094 43.433594 38.769531 C 43.117188 38.914062 42.816406 39.089844 42.53125 39.292969 C 42.25 39.5 41.988281 39.726562 41.75 39.984375 C 41.511719 40.238281 41.300781 40.515625 41.117188 40.8125 C 40.933594 41.109375 40.777344 41.417969 40.65625 41.746094 C 40.53125 42.070312 40.441406 42.40625 40.386719 42.75 C 40.328125 43.09375 40.304688 43.441406 40.316406 43.789062 C 40.324219 44.136719 40.371094 44.480469 40.449219 44.820312 C 40.527344 45.160156 40.636719 45.488281 40.777344 45.808594 C 40.921875 46.125 41.09375 46.429688 41.292969 46.710938 C 41.496094 46.996094 41.722656 47.261719 41.976562 47.5 C 42.230469 47.742188 42.503906 47.957031 42.796875 48.140625 C 43.09375 48.328125 43.402344 48.488281 43.730469 48.613281 C 44.054688 48.738281 44.390625 48.835938 44.734375 48.894531 C 45.078125 48.957031 45.425781 48.984375 45.773438 48.980469 C 48.007812 48.917969 50.179688 48.519531 52.289062 47.78125 C 52.289062 47.78125 52.339844 47.761719 52.429688 47.730469 C 52.457031 47.722656 52.484375 47.714844 52.511719 47.703125 C 52.582031 47.675781 52.65625 47.652344 52.722656 47.621094 C 52.792969 47.59375 52.835938 47.582031 52.890625 47.558594 C 52.984375 47.523438 53.074219 47.488281 53.164062 47.445312 L 53.300781 47.390625 C 53.367188 47.367188 53.429688 47.339844 53.492188 47.3125 C 53.644531 47.25 53.792969 47.1875 53.941406 47.121094 C 58.199219 45.273438 64.515625 39.257812 66.078125 37.90625 L 66.148438 37.847656 C 69.59375 34.792969 72.390625 32.992188 76.671875 32.992188 C 77.390625 32.992188 78.101562 33.054688 78.808594 33.183594 C 79.515625 33.308594 80.203125 33.496094 80.875 33.746094 C 81.550781 33.996094 82.195312 34.304688 82.8125 34.667969 C 83.429688 35.03125 84.011719 35.445312 84.554688 35.914062 C 85.101562 36.378906 85.597656 36.890625 86.050781 37.445312 C 86.503906 38 86.902344 38.589844 87.25 39.214844 C 87.597656 39.84375 87.886719 40.496094 88.121094 41.171875 C 88.351562 41.847656 88.519531 42.542969 88.628906 43.25 C 88.628906 43.253906 88.628906 43.261719 88.628906 43.269531 C 89.6875 47.914062 89.097656 54.679688 86.011719 60.269531 C 84.609375 62.804688 82.34375 65.730469 78.789062 67.699219 C 90.386719 66.632812 99.496094 56.878906 99.496094 45.046875 C 99.5 32.503906 89.261719 22.296875 76.675781 22.296875 Z M 76.675781 22.296875 " fill-opacity="1" fill-rule="nonzero"/></g><g fill="#2a6672" fill-opacity="1"><g transform="translate(106.107783, 49.424043)"><g><path d="M 0.886719 0 L 4.621094 0 L 4.621094 -12.210938 L 0.886719 -12.210938 Z M 0.886719 0 "/></g></g></g><g fill="#2a6672" fill-opacity="1"><g transform="translate(114.683858, 49.424043)"><g><path d="M 6.089844 0.425781 C 9.449219 0.425781 11.851562 -1.058594 11.851562 -3.785156 C 11.851562 -5.953125 10.523438 -7.113281 7.519531 -7.539062 L 5.933594 -7.792969 C 4.792969 -7.980469 4.296875 -8.289062 4.296875 -8.867188 C 4.296875 -9.53125 4.910156 -9.992188 5.847656 -9.992188 C 6.855469 -9.992188 7.621094 -9.378906 7.757812 -8.375 L 11.035156 -9.089844 C 10.742188 -11.253906 8.628906 -12.636719 5.933594 -12.636719 C 2.917969 -12.636719 0.664062 -11.101562 0.664062 -8.578125 C 0.664062 -6.496094 1.960938 -5.371094 4.929688 -4.859375 L 6.496094 -4.605469 C 7.726562 -4.367188 8.253906 -4.023438 8.253906 -3.445312 C 8.253906 -2.710938 7.488281 -2.21875 6.277344 -2.21875 C 4.910156 -2.21875 3.921875 -2.96875 3.734375 -4.210938 L 0.390625 -3.582031 C 0.664062 -0.871094 2.949219 0.425781 6.089844 0.425781 Z M 6.089844 0.425781 "/></g></g></g><g fill="#2a6672" fill-opacity="1"><g transform="translate(129.805911, 49.424043)"><g><path d="M 10.164062 0.273438 C 11.222656 0.273438 12.226562 -0.0664062 12.875 -0.613281 L 12.296875 -2.285156 C 12.109375 -2.113281 11.835938 -1.960938 11.5625 -1.960938 C 11.222656 -1.960938 11.015625 -2.234375 10.914062 -2.574219 L 10.605469 -3.617188 C 10.402344 -4.296875 10.113281 -4.722656 9.5 -4.945312 L 9.5 -4.960938 C 11.1875 -5.492188 12.160156 -6.71875 12.160156 -8.289062 C 12.160156 -10.777344 10.367188 -12.210938 7.28125 -12.210938 L 0.886719 -12.210938 L 0.886719 0 L 4.621094 0 L 4.621094 -4.332031 L 5.832031 -4.332031 C 6.480469 -4.332031 6.855469 -3.820312 7.042969 -3.1875 L 7.453125 -1.808594 C 7.84375 -0.511719 8.832031 0.273438 10.164062 0.273438 Z M 4.621094 -6.703125 L 4.621094 -9.566406 L 6.71875 -9.566406 C 7.777344 -9.566406 8.441406 -9.039062 8.441406 -8.132812 C 8.441406 -7.246094 7.777344 -6.703125 6.71875 -6.703125 Z M 4.621094 -6.703125 "/></g></g></g><g fill="#2a6672" fill-opacity="1"><g transform="translate(145.882587, 49.424043)"><g><path d="M 0.886719 0 L 9.773438 0 L 9.773438 -2.898438 L 4.484375 -2.898438 L 4.484375 -4.960938 L 8.917969 -4.960938 L 8.917969 -7.46875 L 4.484375 -7.46875 L 4.484375 -9.3125 L 9.601562 -9.3125 L 9.601562 -12.210938 L 0.886719 -12.210938 Z M 0.886719 0 "/></g></g></g><g fill="#2a6672" fill-opacity="1"><g transform="translate(159.09539, 49.424043)"><g><path d="M 6.089844 0.425781 C 9.449219 0.425781 11.851562 -1.058594 11.851562 -3.785156 C 11.851562 -5.953125 10.523438 -7.113281 7.519531 -7.539062 L 5.933594 -7.792969 C 4.792969 -7.980469 4.296875 -8.289062 4.296875 -8.867188 C 4.296875 -9.53125 4.910156 -9.992188 5.847656 -9.992188 C 6.855469 -9.992188 7.621094 -9.378906 7.757812 -8.375 L 11.035156 -9.089844 C 10.742188 -11.253906 8.628906 -12.636719 5.933594 -12.636719 C 2.917969 -12.636719 0.664062 -11.101562 0.664062 -8.578125 C 0.664062 -6.496094 1.960938 -5.371094 4.929688 -4.859375 L 6.496094 -4.605469 C 7.726562 -4.367188 8.253906 -4.023438 8.253906 -3.445312 C 8.253906 -2.710938 7.488281 -2.21875 6.277344 -2.21875 C 4.910156 -2.21875 3.921875 -2.96875 3.734375 -4.210938 L 0.390625 -3.582031 C 0.664062 -0.871094 2.949219 0.425781 6.089844 0.425781 Z M 6.089844 0.425781 "/></g></g></g><g fill="#2a6672" fill-opacity="1"><g transform="translate(174.217441, 49.424043)"><g><path d="M 6.566406 0.425781 C 10.214844 0.425781 12.347656 -1.5 12.347656 -4.773438 L 12.347656 -12.210938 L 8.613281 -12.210938 L 8.613281 -4.910156 C 8.613281 -3.5625 7.863281 -2.746094 6.566406 -2.746094 C 5.269531 -2.746094 4.503906 -3.597656 4.503906 -4.910156 L 4.503906 -12.210938 L 0.785156 -12.210938 L 0.785156 -4.773438 C 0.785156 -1.5 2.917969 0.425781 6.566406 0.425781 Z M 6.566406 0.425781 "/></g></g></g><g fill="#2a6672" fill-opacity="1"><g transform="translate(190.413436, 49.424043)"><g><path d="M 0.886719 0 L 4.230469 0 L 4.230469 -7.742188 L 4.261719 -7.742188 L 7.316406 0 L 10.148438 0 L 13.214844 -7.742188 L 13.25 -7.742188 L 13.25 0 L 16.574219 0 L 16.574219 -12.210938 L 11.902344 -12.210938 L 8.765625 -4.179688 L 8.730469 -4.179688 L 5.628906 -12.210938 L 0.886719 -12.210938 Z M 0.886719 0 "/></g></g></g><g fill="#2a6672" fill-opacity="1"><g transform="translate(210.939326, 49.424043)"><g><path d="M 0.886719 0 L 9.773438 0 L 9.773438 -2.898438 L 4.484375 -2.898438 L 4.484375 -4.960938 L 8.917969 -4.960938 L 8.917969 -7.46875 L 4.484375 -7.46875 L 4.484375 -9.3125 L 9.601562 -9.3125 L 9.601562 -12.210938 L 0.886719 -12.210938 Z M 0.886719 0 "/></g></g></g><g fill="#2a6672" fill-opacity="1"><g transform="translate(181.184328, 57.08863)"><g><path d="M 2.3125 -2 C 2.582031 -1.945312 2.78125 -1.84375 2.90625 -1.6875 C 3.039062 -1.53125 3.109375 -1.328125 3.109375 -1.078125 C 3.109375 -0.335938 2.554688 0.03125 1.453125 0.03125 C 1.078125 0.03125 0.765625 0.0195312 0.515625 0 L 0.5625 -1.15625 L 0.515625 -3.859375 L 1.71875 -3.859375 C 2.09375 -3.859375 2.378906 -3.773438 2.578125 -3.609375 C 2.785156 -3.453125 2.890625 -3.21875 2.890625 -2.90625 C 2.890625 -2.695312 2.835938 -2.515625 2.734375 -2.359375 C 2.640625 -2.203125 2.5 -2.082031 2.3125 -2 Z M 2.25 -2.84375 C 2.25 -3.03125 2.195312 -3.164062 2.09375 -3.25 C 1.988281 -3.332031 1.804688 -3.375 1.546875 -3.375 L 1.140625 -3.375 L 1.125 -2.203125 L 1.734375 -2.171875 C 1.910156 -2.222656 2.039062 -2.300781 2.125 -2.40625 C 2.207031 -2.507812 2.25 -2.65625 2.25 -2.84375 Z M 1.5625 -0.453125 C 1.851562 -0.453125 2.078125 -0.507812 2.234375 -0.625 C 2.398438 -0.738281 2.484375 -0.898438 2.484375 -1.109375 C 2.484375 -1.453125 2.257812 -1.65625 1.8125 -1.71875 L 1.109375 -1.71875 L 1.109375 -1.21875 L 1.125 -0.46875 C 1.28125 -0.457031 1.425781 -0.453125 1.5625 -0.453125 Z M 1.5625 -0.453125 "/></g></g></g><g fill="#2a6672" fill-opacity="1"><g transform="translate(184.508342, 57.08863)"><g><path d="M 2.96875 -0.421875 L 2.921875 -0.09375 C 2.785156 -0.0078125 2.65625 0.0351562 2.53125 0.046875 C 2.414062 0.0234375 2.320312 -0.015625 2.25 -0.078125 C 2.175781 -0.148438 2.125 -0.253906 2.09375 -0.390625 L 2.046875 -0.390625 C 1.804688 -0.171875 1.566406 -0.03125 1.328125 0.03125 C 1.023438 0.03125 0.789062 -0.0351562 0.625 -0.171875 C 0.46875 -0.316406 0.394531 -0.519531 0.40625 -0.78125 L 0.40625 -1.53125 L 0.390625 -2.71875 L 1 -2.78125 L 0.96875 -0.9375 C 0.957031 -0.789062 0.988281 -0.675781 1.0625 -0.59375 C 1.132812 -0.507812 1.238281 -0.46875 1.375 -0.46875 C 1.59375 -0.46875 1.8125 -0.566406 2.03125 -0.765625 L 2.03125 -2.71875 L 2.609375 -2.78125 L 2.578125 -0.640625 C 2.578125 -0.566406 2.585938 -0.515625 2.609375 -0.484375 C 2.628906 -0.453125 2.671875 -0.4375 2.734375 -0.4375 C 2.785156 -0.4375 2.847656 -0.445312 2.921875 -0.46875 Z M 2.96875 -0.421875 "/></g></g></g><g fill="#2a6672" fill-opacity="1"><g transform="translate(187.598354, 57.08863)"><g><path d="M 0.46875 -1.15625 L 0.453125 -2.71875 L 1.046875 -2.78125 L 1.03125 -1.21875 L 1.046875 0 L 0.4375 0 Z M 0.765625 -4.0625 C 0.859375 -4.0625 0.929688 -4.03125 0.984375 -3.96875 C 1.046875 -3.90625 1.078125 -3.820312 1.078125 -3.71875 C 1.078125 -3.613281 1.046875 -3.53125 0.984375 -3.46875 C 0.929688 -3.40625 0.851562 -3.375 0.75 -3.375 C 0.644531 -3.375 0.5625 -3.398438 0.5 -3.453125 C 0.4375 -3.515625 0.40625 -3.597656 0.40625 -3.703125 C 0.40625 -3.804688 0.4375 -3.890625 0.5 -3.953125 C 0.5625 -4.023438 0.648438 -4.0625 0.765625 -4.0625 Z M 0.765625 -4.0625 "/></g></g></g><g fill="#2a6672" fill-opacity="1"><g transform="translate(189.098359, 57.08863)"><g><path d="M 1.03125 -1.21875 L 1.0625 0 L 0.453125 0 L 0.5 -1.15625 L 0.46875 -4.15625 L 1.078125 -4.21875 Z M 1.03125 -1.21875 "/></g></g></g><g fill="#2a6672" fill-opacity="1"><g transform="translate(190.622365, 57.08863)"><g><path d="M 2.609375 -1.21875 L 2.625 -0.640625 C 2.625 -0.566406 2.632812 -0.515625 2.65625 -0.484375 C 2.675781 -0.453125 2.71875 -0.4375 2.78125 -0.4375 C 2.820312 -0.4375 2.882812 -0.445312 2.96875 -0.46875 L 3.015625 -0.421875 L 2.953125 -0.09375 C 2.835938 -0.0195312 2.710938 0.0234375 2.578125 0.046875 C 2.453125 0.0351562 2.347656 -0.00390625 2.265625 -0.078125 C 2.191406 -0.160156 2.144531 -0.257812 2.125 -0.375 L 2.078125 -0.375 C 1.960938 -0.28125 1.859375 -0.203125 1.765625 -0.140625 C 1.671875 -0.078125 1.570312 -0.0195312 1.46875 0.03125 C 1.0625 0.03125 0.75 -0.0859375 0.53125 -0.328125 C 0.320312 -0.578125 0.21875 -0.925781 0.21875 -1.375 C 0.21875 -1.832031 0.335938 -2.1875 0.578125 -2.4375 C 0.816406 -2.6875 1.148438 -2.8125 1.578125 -2.8125 C 1.722656 -2.8125 1.878906 -2.796875 2.046875 -2.765625 L 2.046875 -4.15625 L 2.640625 -4.21875 Z M 1.53125 -2.390625 C 1.300781 -2.390625 1.117188 -2.3125 0.984375 -2.15625 C 0.859375 -2 0.796875 -1.769531 0.796875 -1.46875 C 0.796875 -1.144531 0.851562 -0.894531 0.96875 -0.71875 C 1.09375 -0.550781 1.257812 -0.46875 1.46875 -0.46875 C 1.570312 -0.46875 1.671875 -0.488281 1.765625 -0.53125 C 1.859375 -0.582031 1.957031 -0.664062 2.0625 -0.78125 L 2.0625 -1.15625 L 2.046875 -2.25 C 1.859375 -2.34375 1.6875 -2.390625 1.53125 -2.390625 Z M 1.53125 -2.390625 "/></g></g></g><g fill="#2a6672" fill-opacity="1"><g transform="translate(193.746801, 57.08863)"><g/></g></g><g fill="#2a6672" fill-opacity="1"><g transform="translate(194.706806, 57.08863)"><g/></g></g><g fill="#2a6672" fill-opacity="1"><g transform="translate(195.66086, 57.08863)"><g><path d="M 0.46875 -1.15625 L 0.453125 -2.71875 L 1.046875 -2.78125 L 1.03125 -1.21875 L 1.046875 0 L 0.4375 0 Z M 0.765625 -4.0625 C 0.859375 -4.0625 0.929688 -4.03125 0.984375 -3.96875 C 1.046875 -3.90625 1.078125 -3.820312 1.078125 -3.71875 C 1.078125 -3.613281 1.046875 -3.53125 0.984375 -3.46875 C 0.929688 -3.40625 0.851562 -3.375 0.75 -3.375 C 0.644531 -3.375 0.5625 -3.398438 0.5 -3.453125 C 0.4375 -3.515625 0.40625 -3.597656 0.40625 -3.703125 C 0.40625 -3.804688 0.4375 -3.890625 0.5 -3.953125 C 0.5625 -4.023438 0.648438 -4.0625 0.765625 -4.0625 Z M 0.765625 -4.0625 "/></g></g></g><g fill="#2a6672" fill-opacity="1"><g transform="translate(197.160864, 57.08863)"><g><path d="M 2.15625 -1.8125 C 2.164062 -1.96875 2.128906 -2.085938 2.046875 -2.171875 C 1.972656 -2.253906 1.867188 -2.296875 1.734375 -2.296875 C 1.503906 -2.296875 1.265625 -2.175781 1.015625 -1.9375 L 1.015625 -1.21875 L 1.046875 0 L 0.4375 0 L 0.46875 -1.15625 L 0.4375 -2.71875 L 1.015625 -2.78125 L 1.015625 -2.375 L 1.0625 -2.375 C 1.289062 -2.582031 1.535156 -2.722656 1.796875 -2.796875 C 2.097656 -2.796875 2.328125 -2.722656 2.484375 -2.578125 C 2.648438 -2.441406 2.726562 -2.242188 2.71875 -1.984375 L 2.703125 -1.21875 L 2.734375 0 L 2.125 0 Z M 2.15625 -1.8125 "/></g></g></g><g fill="#2a6672" fill-opacity="1"><g transform="translate(200.28688, 57.08863)"><g/></g></g><g fill="#2a6672" fill-opacity="1"><g transform="translate(201.246885, 57.08863)"><g><path d="M 1.640625 -3.890625 C 1.941406 -3.890625 2.25 -3.828125 2.5625 -3.703125 L 2.453125 -3.140625 L 2.359375 -3.109375 C 2.234375 -3.191406 2.101562 -3.257812 1.96875 -3.3125 C 1.832031 -3.363281 1.703125 -3.390625 1.578125 -3.390625 C 1.378906 -3.390625 1.222656 -3.335938 1.109375 -3.234375 C 0.992188 -3.128906 0.9375 -3.003906 0.9375 -2.859375 C 0.9375 -2.710938 0.992188 -2.59375 1.109375 -2.5 C 1.222656 -2.414062 1.40625 -2.316406 1.65625 -2.203125 C 1.863281 -2.097656 2.035156 -2.003906 2.171875 -1.921875 C 2.304688 -1.835938 2.421875 -1.722656 2.515625 -1.578125 C 2.609375 -1.441406 2.65625 -1.28125 2.65625 -1.09375 C 2.65625 -0.882812 2.597656 -0.691406 2.484375 -0.515625 C 2.378906 -0.347656 2.222656 -0.210938 2.015625 -0.109375 C 1.804688 -0.00390625 1.570312 0.046875 1.3125 0.046875 C 1.132812 0.046875 0.953125 0.0234375 0.765625 -0.015625 C 0.578125 -0.0546875 0.398438 -0.117188 0.234375 -0.203125 L 0.3125 -0.828125 L 0.390625 -0.859375 C 0.535156 -0.710938 0.695312 -0.601562 0.875 -0.53125 C 1.050781 -0.46875 1.21875 -0.4375 1.375 -0.4375 C 1.582031 -0.4375 1.742188 -0.488281 1.859375 -0.59375 C 1.984375 -0.707031 2.046875 -0.84375 2.046875 -1 C 2.046875 -1.144531 1.984375 -1.265625 1.859375 -1.359375 C 1.742188 -1.453125 1.5625 -1.5625 1.3125 -1.6875 C 1.101562 -1.78125 0.929688 -1.867188 0.796875 -1.953125 C 0.671875 -2.035156 0.5625 -2.144531 0.46875 -2.28125 C 0.375 -2.414062 0.328125 -2.578125 0.328125 -2.765625 C 0.328125 -2.972656 0.378906 -3.160156 0.484375 -3.328125 C 0.597656 -3.503906 0.753906 -3.640625 0.953125 -3.734375 C 1.160156 -3.835938 1.390625 -3.890625 1.640625 -3.890625 Z M 1.640625 -3.890625 "/></g></g></g><g fill="#2a6672" fill-opacity="1"><g transform="translate(204.144896, 57.08863)"><g><path d="M 2.46875 -1.359375 L 0.78125 -1.34375 C 0.78125 -1.039062 0.851562 -0.8125 1 -0.65625 C 1.144531 -0.5 1.347656 -0.421875 1.609375 -0.421875 C 1.890625 -0.421875 2.160156 -0.503906 2.421875 -0.671875 L 2.484375 -0.625 L 2.390625 -0.140625 C 2.097656 -0.015625 1.816406 0.046875 1.546875 0.046875 C 1.128906 0.046875 0.800781 -0.078125 0.5625 -0.328125 C 0.332031 -0.578125 0.21875 -0.925781 0.21875 -1.375 C 0.21875 -1.8125 0.332031 -2.160156 0.5625 -2.421875 C 0.800781 -2.679688 1.117188 -2.8125 1.515625 -2.8125 C 1.847656 -2.8125 2.101562 -2.71875 2.28125 -2.53125 C 2.46875 -2.351562 2.5625 -2.097656 2.5625 -1.765625 C 2.5625 -1.671875 2.550781 -1.554688 2.53125 -1.421875 Z M 2.015625 -1.828125 C 2.015625 -2.015625 1.96875 -2.15625 1.875 -2.25 C 1.789062 -2.351562 1.664062 -2.40625 1.5 -2.40625 C 1.320312 -2.40625 1.171875 -2.34375 1.046875 -2.21875 C 0.929688 -2.101562 0.851562 -1.9375 0.8125 -1.71875 L 2 -1.75 Z M 2.015625 -1.828125 "/></g></g></g><g fill="#2a6672" fill-opacity="1"><g transform="translate(206.934906, 57.08863)"><g><path d="M 1.484375 -2.8125 C 1.617188 -2.8125 1.75 -2.796875 1.875 -2.765625 C 2.007812 -2.742188 2.125 -2.707031 2.21875 -2.65625 L 2.125 -2.15625 L 2.0625 -2.125 C 1.851562 -2.25 1.65625 -2.3125 1.46875 -2.3125 C 1.257812 -2.3125 1.09375 -2.234375 0.96875 -2.078125 C 0.851562 -1.921875 0.796875 -1.695312 0.796875 -1.40625 C 0.796875 -1.09375 0.859375 -0.851562 0.984375 -0.6875 C 1.109375 -0.519531 1.285156 -0.4375 1.515625 -0.4375 C 1.710938 -0.4375 1.925781 -0.492188 2.15625 -0.609375 L 2.203125 -0.578125 L 2.140625 -0.078125 C 1.898438 0.00390625 1.660156 0.046875 1.421875 0.046875 C 1.046875 0.046875 0.75 -0.078125 0.53125 -0.328125 C 0.320312 -0.578125 0.21875 -0.921875 0.21875 -1.359375 C 0.21875 -1.816406 0.328125 -2.171875 0.546875 -2.421875 C 0.773438 -2.679688 1.085938 -2.8125 1.484375 -2.8125 Z M 1.484375 -2.8125 "/></g></g></g><g fill="#2a6672" fill-opacity="1"><g transform="translate(209.244914, 57.08863)"><g><path d="M 1.515625 -2.8125 C 1.898438 -2.8125 2.195312 -2.691406 2.40625 -2.453125 C 2.613281 -2.210938 2.71875 -1.867188 2.71875 -1.421875 C 2.71875 -0.953125 2.601562 -0.585938 2.375 -0.328125 C 2.15625 -0.078125 1.84375 0.046875 1.4375 0.046875 C 1.050781 0.046875 0.75 -0.0703125 0.53125 -0.3125 C 0.320312 -0.550781 0.21875 -0.894531 0.21875 -1.34375 C 0.21875 -1.8125 0.328125 -2.171875 0.546875 -2.421875 C 0.773438 -2.679688 1.097656 -2.8125 1.515625 -2.8125 Z M 1.46875 -2.390625 C 1.019531 -2.390625 0.796875 -2.082031 0.796875 -1.46875 C 0.796875 -1.09375 0.847656 -0.8125 0.953125 -0.625 C 1.066406 -0.445312 1.238281 -0.359375 1.46875 -0.359375 C 1.695312 -0.359375 1.867188 -0.4375 1.984375 -0.59375 C 2.097656 -0.75 2.15625 -0.984375 2.15625 -1.296875 C 2.15625 -1.671875 2.097656 -1.945312 1.984375 -2.125 C 1.867188 -2.300781 1.695312 -2.390625 1.46875 -2.390625 Z M 1.46875 -2.390625 "/></g></g></g><g fill="#2a6672" fill-opacity="1"><g transform="translate(212.196927, 57.08863)"><g><path d="M 2.15625 -1.8125 C 2.164062 -1.96875 2.128906 -2.085938 2.046875 -2.171875 C 1.972656 -2.253906 1.867188 -2.296875 1.734375 -2.296875 C 1.503906 -2.296875 1.265625 -2.175781 1.015625 -1.9375 L 1.015625 -1.21875 L 1.046875 0 L 0.4375 0 L 0.46875 -1.15625 L 0.4375 -2.71875 L 1.015625 -2.78125 L 1.015625 -2.375 L 1.0625 -2.375 C 1.289062 -2.582031 1.535156 -2.722656 1.796875 -2.796875 C 2.097656 -2.796875 2.328125 -2.722656 2.484375 -2.578125 C 2.648438 -2.441406 2.726562 -2.242188 2.71875 -1.984375 L 2.703125 -1.21875 L 2.734375 0 L 2.125 0 Z M 2.15625 -1.8125 "/></g></g></g><g fill="#2a6672" fill-opacity="1"><g transform="translate(215.322942, 57.08863)"><g><path d="M 2.609375 -1.21875 L 2.625 -0.640625 C 2.625 -0.566406 2.632812 -0.515625 2.65625 -0.484375 C 2.675781 -0.453125 2.71875 -0.4375 2.78125 -0.4375 C 2.820312 -0.4375 2.882812 -0.445312 2.96875 -0.46875 L 3.015625 -0.421875 L 2.953125 -0.09375 C 2.835938 -0.0195312 2.710938 0.0234375 2.578125 0.046875 C 2.453125 0.0351562 2.347656 -0.00390625 2.265625 -0.078125 C 2.191406 -0.160156 2.144531 -0.257812 2.125 -0.375 L 2.078125 -0.375 C 1.960938 -0.28125 1.859375 -0.203125 1.765625 -0.140625 C 1.671875 -0.078125 1.570312 -0.0195312 1.46875 0.03125 C 1.0625 0.03125 0.75 -0.0859375 0.53125 -0.328125 C 0.320312 -0.578125 0.21875 -0.925781 0.21875 -1.375 C 0.21875 -1.832031 0.335938 -2.1875 0.578125 -2.4375 C 0.816406 -2.6875 1.148438 -2.8125 1.578125 -2.8125 C 1.722656 -2.8125 1.878906 -2.796875 2.046875 -2.765625 L 2.046875 -4.15625 L 2.640625 -4.21875 Z M 1.53125 -2.390625 C 1.300781 -2.390625 1.117188 -2.3125 0.984375 -2.15625 C 0.859375 -2 0.796875 -1.769531 0.796875 -1.46875 C 0.796875 -1.144531 0.851562 -0.894531 0.96875 -0.71875 C 1.09375 -0.550781 1.257812 -0.46875 1.46875 -0.46875 C 1.570312 -0.46875 1.671875 -0.488281 1.765625 -0.53125 C 1.859375 -0.582031 1.957031 -0.664062 2.0625 -0.78125 L 2.0625 -1.15625 L 2.046875 -2.25 C 1.859375 -2.34375 1.6875 -2.390625 1.53125 -2.390625 Z M 1.53125 -2.390625 "/></g></g></g><g fill="#2a6672" fill-opacity="1"><g transform="translate(218.448958, 57.08863)"><g><path d="M 1.265625 -2.8125 C 1.503906 -2.8125 1.738281 -2.765625 1.96875 -2.671875 L 1.875 -2.203125 L 1.796875 -2.171875 C 1.585938 -2.316406 1.382812 -2.390625 1.1875 -2.390625 C 1.070312 -2.390625 0.976562 -2.359375 0.90625 -2.296875 C 0.832031 -2.234375 0.796875 -2.15625 0.796875 -2.0625 C 0.796875 -1.957031 0.835938 -1.875 0.921875 -1.8125 C 1.003906 -1.757812 1.128906 -1.695312 1.296875 -1.625 C 1.453125 -1.550781 1.578125 -1.484375 1.671875 -1.421875 C 1.773438 -1.367188 1.863281 -1.289062 1.9375 -1.1875 C 2.007812 -1.082031 2.046875 -0.957031 2.046875 -0.8125 C 2.046875 -0.664062 2.003906 -0.523438 1.921875 -0.390625 C 1.835938 -0.253906 1.71875 -0.144531 1.5625 -0.0625 C 1.40625 0.0078125 1.21875 0.046875 1 0.046875 C 0.726562 0.046875 0.445312 -0.0078125 0.15625 -0.125 L 0.234375 -0.640625 L 0.296875 -0.6875 C 0.410156 -0.582031 0.535156 -0.5 0.671875 -0.4375 C 0.816406 -0.382812 0.945312 -0.359375 1.0625 -0.359375 C 1.195312 -0.359375 1.300781 -0.390625 1.375 -0.453125 C 1.457031 -0.523438 1.5 -0.613281 1.5 -0.71875 C 1.5 -0.8125 1.457031 -0.882812 1.375 -0.9375 C 1.289062 -1 1.164062 -1.070312 1 -1.15625 C 0.84375 -1.226562 0.710938 -1.289062 0.609375 -1.34375 C 0.515625 -1.40625 0.429688 -1.488281 0.359375 -1.59375 C 0.285156 -1.695312 0.25 -1.828125 0.25 -1.984375 C 0.25 -2.222656 0.335938 -2.421875 0.515625 -2.578125 C 0.703125 -2.734375 0.953125 -2.8125 1.265625 -2.8125 Z M 1.265625 -2.8125 "/></g></g></g></svg>